<svg width="52" height="52" viewBox="0 0 52 52" fill="none" xmlns="http://www.w3.org/2000/svg">
<path d="M25.9995 0C11.6627 0 0 11.6636 0 26C0 40.3364 11.6627 52 25.9995 52C40.3363 52 52 40.3364 52 26C52 11.6636 40.3363 0 25.9995 0ZM25.9995 48.5901C13.5434 48.5901 3.4099 38.4561 3.4099 26C3.4099 13.5438 13.5433 3.41003 25.9995 3.41003C38.4557 3.41003 48.5897 13.5439 48.5897 26C48.5898 38.4561 38.4556 48.5901 25.9995 48.5901Z" fill="#333333"/>
<path d="M35.4127 17.4884L22.0056 30.8948L16.5861 25.4764C15.9201 24.8111 14.8412 24.8108 14.1752 25.4767C13.509 26.143 13.509 27.222 14.1752 27.888L20.8004 34.5121C21.1333 34.8447 21.5695 35.0111 22.0056 35.0111C22.4418 35.0111 22.8791 34.8447 23.2119 34.5116C23.213 34.5102 23.2137 34.5088 23.2154 34.5071L37.8234 19.8992C38.4897 19.2336 38.4897 18.1538 37.8234 17.4882C37.1575 16.8223 36.0779 16.8223 35.4127 17.4884Z" fill="#FF5C00"/>
</svg>
