<svg width="22" height="22" viewBox="0 0 22 22" fill="none" xmlns="http://www.w3.org/2000/svg">
<g clip-path="url(#clip0)">
<path d="M11.0002 17.4389C11.4748 17.4389 11.8595 17.0541 11.8595 16.5795C11.8595 16.1049 11.4748 15.7202 11.0002 15.7202C10.5256 15.7202 10.1409 16.1049 10.1409 16.5795C10.1409 17.0541 10.5256 17.4389 11.0002 17.4389Z" fill="black"/>
<path d="M13.3974 5.00488H8.60268C8.33391 5.00488 8.11523 5.21337 8.11523 5.46916V14.5326C8.11523 14.7886 8.33377 14.9968 8.60268 14.9968H13.3974C13.6661 14.9968 13.8848 14.7884 13.8848 14.5326V5.46916C13.8847 5.21315 13.6661 5.00488 13.3974 5.00488Z" fill="black"/>
<path d="M11.0006 0C4.92575 0 0.000976562 4.92514 0.000976562 10.9998C0.000976562 17.0744 4.92575 22 11.0006 22C17.0755 22 22.0008 17.0747 22.0008 10.9998C22.0008 4.92485 17.0755 0 11.0006 0ZM15.2802 16.4282C15.2802 17.2685 14.5989 17.9498 13.7586 17.9498H8.24291C7.40265 17.9498 6.72131 17.2685 6.72131 16.4282V5.52369C6.72131 4.68343 7.40258 4.00209 8.24291 4.00209H13.7586C14.5989 4.00209 15.2802 4.68336 15.2802 5.52369V16.4282Z" fill="black"/>
</g>
<defs>
<clipPath id="clip0">
<rect width="22" height="22" fill="white"/>
</clipPath>
</defs>
</svg>
