<svg width="22" height="22" viewBox="0 0 22 22" fill="none" xmlns="http://www.w3.org/2000/svg">
<g clip-path="url(#clip0)">
<path d="M11.0007 0C4.9258 0 0.000976562 4.92497 0.000976562 10.9999C0.000976562 17.0747 4.9258 22 11.0007 22C17.0756 22 22.0008 17.0747 22.0008 10.9999C22.0008 4.92497 17.0756 0 11.0007 0ZM11.0009 3.86368L17.5103 7.92272H4.49159L11.0009 3.86368ZM17.5914 14.4045H17.5907C17.5907 15.0556 17.0631 15.5831 16.4121 15.5831H5.58977C4.93871 15.5831 4.41114 15.0555 4.41114 14.4045V8.181C4.41114 8.11214 4.41818 8.04519 4.42962 7.97941L10.6489 11.8575C10.6566 11.8623 10.6647 11.8655 10.6725 11.8699C10.6808 11.8745 10.6891 11.8789 10.6975 11.8831C10.7414 11.9057 10.7867 11.924 10.8329 11.9359C10.8377 11.9372 10.8425 11.9378 10.8472 11.9389C10.898 11.9509 10.9494 11.9584 11.0007 11.9584H11.0011C11.0015 11.9584 11.0018 11.9584 11.0018 11.9584C11.0532 11.9584 11.1046 11.9511 11.1553 11.9389C11.1601 11.9378 11.1648 11.9372 11.1696 11.9359C11.2158 11.924 11.2609 11.9057 11.3051 11.8831C11.3134 11.8789 11.3218 11.8745 11.33 11.8699C11.3378 11.8655 11.346 11.8623 11.3536 11.8575L17.5729 7.97941C17.5844 8.04519 17.5914 8.11199 17.5914 8.181V14.4045Z" fill="black"/>
</g>
<defs>
<clipPath id="clip0">
<rect width="22" height="22" fill="white"/>
</clipPath>
</defs>
</svg>
