<svg width="12" height="11" viewBox="0 0 12 11" fill="none" xmlns="http://www.w3.org/2000/svg">
<mask id="path-1-inside-1" fill="white">
<path d="M10.7438 0.757545C9.38906 -0.381518 7.2961 -0.210424 6 1.10911C4.70391 -0.210424 2.61094 -0.383861 1.25625 0.757545C-0.506247 2.24114 -0.248435 4.65989 1.00782 5.94192L5.11875 10.1302C5.35313 10.3693 5.66719 10.5029 6 10.5029C6.33516 10.5029 6.64688 10.3716 6.88125 10.1325L10.9922 5.94426C12.2461 4.66223 12.5086 2.24348 10.7438 0.757545ZM10.1906 5.15208L6.07969 9.34036C6.02344 9.39661 5.97657 9.39661 5.92032 9.34036L1.80938 5.15208C0.953909 4.2802 0.780471 2.6302 1.98047 1.62004C2.89219 0.853638 4.29844 0.968482 5.17969 1.86614L6 2.70286L6.82032 1.86614C7.70625 0.963795 9.1125 0.853639 10.0195 1.6177C11.2172 2.62786 11.0391 4.28723 10.1906 5.15208Z"/>
</mask>
<path d="M10.7438 0.757545C9.38906 -0.381518 7.2961 -0.210424 6 1.10911C4.70391 -0.210424 2.61094 -0.383861 1.25625 0.757545C-0.506247 2.24114 -0.248435 4.65989 1.00782 5.94192L5.11875 10.1302C5.35313 10.3693 5.66719 10.5029 6 10.5029C6.33516 10.5029 6.64688 10.3716 6.88125 10.1325L10.9922 5.94426C12.2461 4.66223 12.5086 2.24348 10.7438 0.757545ZM10.1906 5.15208L6.07969 9.34036C6.02344 9.39661 5.97657 9.39661 5.92032 9.34036L1.80938 5.15208C0.953909 4.2802 0.780471 2.6302 1.98047 1.62004C2.89219 0.853638 4.29844 0.968482 5.17969 1.86614L6 2.70286L6.82032 1.86614C7.70625 0.963795 9.1125 0.853639 10.0195 1.6177C11.2172 2.62786 11.0391 4.28723 10.1906 5.15208Z" fill="#B51600"/>
<path d="M6 1.10911L3.85976 3.21134L6 5.39028L8.14025 3.21134L6 1.10911ZM1.25625 0.757545L3.18819 3.05267L3.18927 3.05176L1.25625 0.757545ZM1.00782 5.94192L-1.13494 8.04159L-1.13318 8.04338L1.00782 5.94192ZM5.11875 10.1302L7.26097 8.02999L7.25975 8.02874L5.11875 10.1302ZM6.88125 10.1325L4.74026 8.03108L4.73903 8.03233L6.88125 10.1325ZM10.9922 5.94426L13.1332 8.04573L13.1369 8.04193L10.9922 5.94426ZM6.07969 9.34036L8.20101 11.4617L8.21089 11.4518L8.22069 11.4418L6.07969 9.34036ZM5.92032 9.34036L3.77932 11.4418L3.78911 11.4518L3.799 11.4617L5.92032 9.34036ZM1.80938 5.15208L-0.331994 7.25315L-0.331619 7.25354L1.80938 5.15208ZM1.98047 1.62004L0.0500643 -0.676373L0.0484785 -0.675038L1.98047 1.62004ZM5.17969 1.86614L7.32191 -0.234076L7.32048 -0.235528L5.17969 1.86614ZM6 2.70286L3.85778 4.80307L6 6.98813L8.14222 4.80307L6 2.70286ZM6.82032 1.86614L4.67962 -0.235632L4.6781 -0.234076L6.82032 1.86614ZM10.0195 1.6177L11.9537 -0.67552L11.9523 -0.676725L10.0195 1.6177ZM12.6744 -1.53863C10.0026 -3.78524 6.14265 -3.31729 3.85976 -0.99312L8.14025 3.21134C8.26695 3.08234 8.42948 3.01402 8.57858 3.00263C8.72375 2.99153 8.79101 3.03518 8.81306 3.05372L12.6744 -1.53863ZM8.14025 -0.99312C5.85992 -3.31468 1.99838 -3.79064 -0.676766 -1.53667L3.18927 3.05176C3.2105 3.03388 3.2762 2.99059 3.4204 3.00167C3.56898 3.01308 3.7322 3.08146 3.85976 3.21134L8.14025 -0.99312ZM-0.675685 -1.53758C-3.99017 1.2524 -3.40627 5.72364 -1.13494 8.04158L3.15057 3.84225C3.12775 3.81896 3.08644 3.7654 3.05154 3.67877C3.01707 3.59317 3.0001 3.50283 3 3.42162C2.9999 3.34392 3.01485 3.2848 3.03497 3.23987C3.05266 3.20039 3.09012 3.13523 3.18819 3.05267L-0.675685 -1.53758ZM-1.13318 8.04338L2.97776 12.2317L7.25975 8.02874L3.14881 3.84046L-1.13318 8.04338ZM2.97653 12.2304C3.76606 13.0357 4.84838 13.5029 6 13.5029V7.50286C6.486 7.50286 6.94019 7.70279 7.26097 8.02999L2.97653 12.2304ZM6 13.5029C7.14261 13.5029 8.22593 13.0463 9.02347 12.2328L4.73903 8.03233C5.06783 7.69696 5.52771 7.50286 6 7.50286V13.5029ZM9.02225 12.234L13.1332 8.04572L8.85119 3.8428L4.74026 8.03108L9.02225 12.234ZM13.1369 8.04193C15.3998 5.72831 15.9959 1.25794 12.676 -1.53735L8.81153 3.05244C8.91018 3.1355 8.94762 3.20086 8.9652 3.24012C8.98522 3.28486 9.00015 3.3439 9.00001 3.42182C8.99986 3.5033 8.98278 3.59427 8.94793 3.68075C8.91265 3.76831 8.87081 3.82274 8.84748 3.8466L13.1369 8.04193ZM8.04963 3.05062L3.93869 7.2389L8.22069 11.4418L12.3316 7.25354L8.04963 3.05062ZM3.95837 7.21904C4.16064 7.01677 4.85911 6.38254 6 6.38254C7.1409 6.38254 7.83937 7.01677 8.04164 7.21904L3.799 11.4617C4.05751 11.7202 4.80754 12.3825 6 12.3825C7.19246 12.3825 7.94249 11.7202 8.20101 11.4617L3.95837 7.21904ZM8.06131 7.2389L3.95037 3.05062L-0.331619 7.25354L3.77932 11.4418L8.06131 7.2389ZM3.95075 3.051C4.02979 3.13155 4.06942 3.20434 4.08999 3.25552C4.11099 3.30775 4.12409 3.36691 4.12412 3.43656C4.12416 3.50968 4.10931 3.60317 4.06473 3.70261C4.01771 3.80752 3.95525 3.87911 3.91246 3.91513L0.0484785 -0.675038C-2.69931 1.63805 -2.20852 5.34064 -0.331994 7.25315L3.95075 3.051ZM3.91088 3.91646C3.71184 4.08378 3.49527 4.12072 3.35711 4.1099C3.22268 4.09936 3.11385 4.04416 3.0389 3.96781L7.32048 -0.235528C5.45936 -2.1313 2.28619 -2.5561 0.0500647 -0.676372L3.91088 3.91646ZM3.03747 3.96635L3.85778 4.80307L8.14222 0.602643L7.32191 -0.234076L3.03747 3.96635ZM8.14222 4.80307L8.96253 3.96635L4.6781 -0.234076L3.85778 0.602643L8.14222 4.80307ZM8.96101 3.96791C8.88873 4.04153 8.78082 4.09738 8.6449 4.10796C8.5064 4.11875 8.28816 4.08178 8.08676 3.91213L11.9523 -0.676725C9.72095 -2.55637 6.54609 -2.13666 4.67962 -0.235632L8.96101 3.96791ZM8.08533 3.91092C8.03936 3.87215 7.97647 3.79866 7.93 3.69425C7.88613 3.59566 7.87227 3.50463 7.87237 3.43532C7.87246 3.36942 7.88473 3.31304 7.90518 3.26195C7.92511 3.21216 7.96533 3.13654 8.04909 3.05117L12.3322 7.25299C14.1988 5.35021 14.6988 1.63981 11.9537 -0.675519L8.08533 3.91092Z" fill="#FF5C00" mask="url(#path-1-inside-1)"/>
</svg>
