<svg width="228" height="126" viewBox="0 0 228 126" fill="none" xmlns="http://www.w3.org/2000/svg">
<path fill-rule="evenodd" clip-rule="evenodd" d="M0 0H228V120.508H183.1V118.939H226.654V1.56912H1.34632V118.939H44.8326C44.8205 119.537 44.836 120.093 44.9672 120.508H0V0ZM75.1922 25.3413C81.9844 25.1728 86.6111 27.1121 90.473 30.284C91.2242 30.9013 92.7658 31.9507 93.1656 32.8731C93.2787 33.1334 93.3972 33.8049 93.3003 34.2068C93.1488 34.8359 92.6911 35.1883 92.2905 35.5406C91.9317 35.9852 91.5727 36.4297 91.2135 36.8743C90.7665 37.3952 90.2367 37.8342 89.7998 38.365C88.1203 38.4001 88.199 37.6048 87.4438 36.4036C87.0392 35.7596 86.4374 35.2285 86.0301 34.5991C85.7359 34.1447 85.4054 33.6047 85.0204 33.2653C83.2877 31.7384 81.6956 30.2188 79.3658 29.3425C74.7338 27.6008 69.2394 30.0141 67.5182 33.2653C65.494 37.0884 66.5966 43.2802 68.4606 46.2106C70.2573 49.035 73.4164 50.4875 76.202 52.1732C81.7131 55.508 87.7595 58.0491 91.2135 63.7847C92.376 65.7148 93.2262 67.968 93.9061 70.4535C95.0249 74.5434 94.5146 80.6465 93.3003 84.0264C91.4706 89.1198 88.5484 92.1403 84.1453 94.2257C82.7794 94.8729 81.3584 94.9608 79.7697 95.4025C78.5291 95.7469 75.3497 96.1557 73.9132 95.7948H72.7688C72.0708 95.6175 71.2845 95.685 70.5474 95.481C69.7396 95.2715 68.9318 95.0623 68.124 94.8533C68.2304 93.7989 67.7039 93.3328 67.3162 92.6565C66.6605 91.5127 66.0379 90.368 65.4314 89.2045H65.566C65.9059 89.5136 66.4034 89.563 66.845 89.7537C68.1752 90.3272 69.5599 90.6198 71.0859 91.0874C72.0331 91.3777 73.2151 91.453 74.2498 91.7151C75.413 92.0101 77.5072 91.8343 78.4907 91.5582C79.2938 91.3322 79.9494 91.3393 80.6448 91.009C83.4862 89.6595 85.6955 87.6071 86.9052 84.3402C87.5743 82.5341 88.1674 79.3834 87.6457 76.73C87.433 75.6481 87.3132 74.4869 86.9725 73.5133C84.2785 65.8112 76.7398 63.8059 70.9513 59.705C70.1341 59.126 69.2105 58.871 68.3933 58.2928C66.9313 57.2531 65.5158 56.1271 64.1523 54.9192C63.1917 54.0742 62.5879 52.7476 61.729 51.781C61.8831 51.1062 62.2662 50.4674 62.4694 49.8196C62.8956 48.461 63.0632 46.9761 63.3446 45.5045C63.5041 44.6704 63.4913 43.313 63.3446 42.5232C63.3223 41.9478 63.2999 41.3725 63.2772 40.7971C62.9232 39.0083 62.6997 37.2975 62.1329 35.7759C61.8394 34.988 61.2645 34.2647 61.0558 33.4223C61.2409 33.253 61.2551 33.0234 61.3924 32.7946C61.737 32.2198 62.4768 31.0895 62.9407 30.6763C64.6013 29.1961 66.2136 27.8397 68.326 26.832C69.714 26.1698 71.3155 26.0003 72.9035 25.5767C73.4629 25.4276 74.789 25.6382 75.1922 25.3413ZM187.543 25.4197C195.577 25.2588 202.229 26.4229 207.671 29.1856C209.024 29.8731 210.14 30.539 211.238 31.4609C211.567 31.7367 212.035 31.9222 212.181 32.4023C212.411 32.7423 212.373 33.9261 212.181 34.2853C211.707 35.1732 210.962 35.9558 210.43 36.7959C210.185 37.184 210.002 37.7548 209.623 37.9727L208.815 38.0512C208.682 37.9328 208.492 37.9316 208.344 37.8158C208.119 37.5543 207.895 37.2928 207.671 37.0312C206.905 36.3574 206.158 35.628 205.382 34.9914C202.869 32.9301 199.963 31.4732 196.631 30.3625C195.157 29.8713 193.547 29.9199 191.986 29.4995L189.63 29.421C189.183 29.3079 188.327 29.302 187.88 29.421C187.072 29.6361 186.347 29.3643 185.591 29.5779C184.386 29.9186 183.1 30.178 182.023 30.5978C181.139 30.9431 180.401 31.1292 179.6 31.5393C174.905 33.941 170.89 39.4267 168.829 44.9553C168.197 46.6518 167.908 48.3944 167.415 50.2903C166.495 53.8331 165.716 60.9744 166.608 65.2754C166.72 66.191 166.832 67.1063 166.944 68.0214C167.409 69.9231 167.782 71.8602 168.425 73.5917C171.185 81.016 175.401 86.009 182.09 88.8907C183.548 89.5183 185.22 89.756 186.937 90.2244C187.678 90.2503 188.418 90.2765 189.159 90.3029C189.723 90.4449 190.897 90.3892 191.515 90.2244C191.986 90.1985 192.457 90.1724 192.928 90.146C194.628 89.6807 196.345 89.5779 197.91 88.9691C201.187 87.6934 204.179 86.1557 206.863 84.1833C207.813 83.4843 208.769 82.6801 209.69 81.9081C210.118 81.5487 210.503 80.9493 211.036 80.7312C211.348 82.1011 212.704 83.2489 212.921 84.654C212.254 85.0957 211.714 85.7893 211.104 86.3016C209.831 87.3717 208.519 88.467 207.199 89.4398C204.252 91.6131 201.255 92.9923 197.573 94.3826C196.087 94.9435 194.444 94.9781 192.861 95.4025C191.835 95.6779 190.791 95.2895 189.697 95.5594C188.755 95.7916 186.164 95.5665 185.254 95.3241C184.738 95.2715 184.222 95.2192 183.706 95.1671C182.179 94.7309 180.628 94.5466 179.196 93.9903C175.905 92.713 172.896 91.0819 170.31 88.9691C169.399 88.2246 168.623 87.2266 167.752 86.4585C166.236 85.1224 165.028 83.3258 163.915 81.5158C163.586 80.9807 162.745 79.9145 162.569 79.319V59.5481C162.546 53.6383 162.524 47.728 162.501 41.8171C162.566 41.5895 162.804 41.3772 162.905 41.1894C163.459 40.1659 163.983 39.2395 164.588 38.2865C164.835 37.9989 165.082 37.7112 165.329 37.4235C168.462 32.5843 173.717 29.1852 179.196 27.0673C180.869 26.4204 182.701 26.2293 184.514 25.7336C185.14 25.5621 187.151 25.7061 187.543 25.4197ZM89.9345 25.6551H94.1754C94.7159 26.8959 96.0737 28.1397 96.8007 29.2641C98.1706 31.3835 99.7404 33.2625 101.109 35.3837C101.536 36.0457 102.162 36.6049 102.59 37.2666C106.656 43.5607 111.519 49.0919 115.582 55.3899C116.808 57.2908 118.314 58.9605 119.554 60.8819C119.876 61.3816 120.376 61.7951 120.698 62.2941C121.838 64.0593 123.127 65.6277 124.266 67.3937C124.693 68.0559 125.319 68.6145 125.747 69.2767C127.45 71.9151 129.429 74.2468 131.132 76.8869C131.917 78.1037 133.14 79.1197 133.757 80.4959H133.825V25.6551H137.864C137.909 48.6927 137.954 71.7326 137.998 94.7749H134.229C133.636 93.7063 132.723 92.8754 132.074 91.872C130.599 89.5889 128.902 87.5655 127.43 85.2817C127.003 84.6195 126.376 84.0601 125.949 83.3987C125.038 81.9889 124.031 80.7297 123.121 79.319C122.799 78.8193 122.299 78.4058 121.977 77.9068C117.929 71.6413 113.096 66.1314 109.052 59.8619C108.73 59.3622 108.23 58.9487 107.908 58.4497C106.663 56.5215 105.248 54.8084 104.004 52.8794C103.575 52.2161 102.951 51.6612 102.523 50.9964C100.823 48.3549 98.8397 46.0256 97.1373 43.3862C96.4749 42.3595 95.6583 41.4518 94.9832 40.4048C94.7348 40.0193 94.3814 39.7651 94.1754 39.3065H94.1081V68.5705H94.0407C93.9674 67.8291 93.5857 67.2603 93.3676 66.6876C92.7611 65.095 92.0502 63.7667 91.2135 62.451C90.9407 62.0401 90.6485 61.6473 90.3383 61.2741C90.2037 61.1431 90.0691 61.0129 89.9345 60.8819V39.0711C90.0745 39.0419 90.0637 39.0521 90.1364 38.9926C91.0701 38.6171 91.8523 36.9307 92.6271 36.2467C93.0115 35.9074 93.5446 35.4942 93.7715 34.9914C93.9223 34.6572 94.0919 33.9031 93.9734 33.3438C93.6207 31.6801 92.3235 30.8411 91.2808 29.9702C90.8601 29.6189 90.4737 29.0729 89.9345 28.8718V25.6551ZM113.899 25.8905H118.073C118.869 27.3277 120.092 28.4589 120.967 29.8133C123.572 33.8425 126.646 37.3932 129.247 41.4248C130.138 42.8067 131.238 44.0244 132.142 45.426C132.4 45.8255 132.978 46.2243 133.151 46.6813V60.3327H133.084C132.309 58.9189 131.114 57.8152 130.257 56.4883C128.447 53.6869 126.343 51.2104 124.535 48.4074C124.108 47.7453 123.481 47.1862 123.054 46.5244C122.044 44.9598 120.818 43.5997 119.823 42.0524C119.365 41.3408 118.687 40.0975 118.073 39.6203V57.5083H118.005V57.3513C117.556 56.9997 117.253 56.3652 116.928 55.8607C116.372 54.9957 115.679 54.2331 115.111 53.3501C114.791 52.8537 114.101 52.362 113.899 51.781V25.8905ZM157.789 25.8905H161.828C161.85 48.9281 161.873 71.968 161.895 95.0102H158.126C157.764 94.177 157.043 93.6114 156.577 92.8919C155.566 91.3275 154.345 89.9639 153.346 88.4199C150.073 83.3548 146.174 78.9016 142.912 73.8271C141.917 72.28 140.691 70.9203 139.681 69.3551C139.409 68.9322 138.788 68.4999 138.604 68.0214V54.2916H138.671V54.4485C139.244 54.9044 139.668 55.763 140.085 56.4099C141.205 58.1467 142.587 59.6744 143.72 61.4311C144.147 62.0932 144.774 62.6526 145.201 63.314C147.24 66.4711 149.626 69.2563 151.663 72.4149C152.32 73.4333 153.227 74.2994 153.885 75.3178C154.666 76.5283 155.607 77.5781 156.376 78.7698C156.784 79.403 157.224 80.2919 157.789 80.7312V25.8905ZM26.2533 26.0474H41.0629C43.1026 26.0474 45.5785 25.7423 47.3906 26.2043L49.1408 26.3612C50.1957 26.6227 51.2503 26.8843 52.3047 27.1458C55.2545 28.2629 58.0454 30.0131 59.7095 32.6377C60.7318 34.2311 61.5274 36.006 62.0655 37.8943C62.8538 40.7133 63.0019 45.1769 62.2002 48.0935C60.7549 53.3501 57.6402 57.9391 53.5164 60.0188C52.2192 60.6732 50.7248 61.1847 48.9389 61.1957V61.3526C49.5804 61.9661 49.9681 63.1869 50.4198 64.0201C51.5676 66.1376 52.7847 68.2552 53.9876 70.375C57.0565 75.7807 60.0582 81.2592 63.1426 86.6939C64.2015 88.5588 65.2658 90.4205 66.3065 92.3427C66.6834 93.0386 67.3115 93.6741 67.5182 94.5395H57.9593C56.9509 92.44 55.69 90.4402 54.5934 88.4199C51.6787 83.0512 48.8063 77.6722 45.9097 72.3364C44.7949 70.2832 43.7057 68.2387 42.6112 66.2169C41.8265 64.7678 41.1631 63.3493 39.9185 62.451C38.5885 61.4907 35.819 61.8139 33.7254 61.8233V94.5395H26.2533V26.0474ZM33.7254 29.4995V59.0774C38.3177 59.1221 43.8632 59.5756 47.1213 57.979C51.919 55.6281 56.5268 47.9349 54.1895 39.6203C53.6968 37.8676 53.023 36.2574 52.1701 34.9129C50.5915 32.4236 47.8322 30.5076 44.8326 29.6564C43.7098 29.3377 42.2386 29.4995 40.9283 29.4995H33.7254ZM118.073 94.461H113.899V67.9429H113.966C114.825 69.5246 116.094 70.8301 117.063 72.3364C117.32 72.7366 117.9 73.1383 118.073 73.5917V94.461ZM94.1081 94.2257H89.9345V91.0874C91.0768 90.1828 92.2959 88.1759 93.031 86.7723C93.3898 85.8568 93.7488 84.9414 94.1081 84.0264V94.2257ZM72.9708 113.604V115.487C72.0371 115.477 70.8254 115.342 70.2781 115.801C68.9486 116.915 69.3808 122.792 69.403 125.608H67.3835V113.918H69.403V116.193H69.4703V116.036C69.6359 115.788 69.6581 115.452 69.8069 115.173C70.4444 113.981 71.2428 113.58 72.9708 113.604ZM83.4048 119.253H76C75.9509 121.664 76.4894 123.487 77.8175 124.274C79.5004 125.271 81.8531 124.002 82.5297 122.784L82.597 122.862L83.0009 123.333C82.2469 125.069 79.3672 126.593 77.0771 125.608C74.9182 124.679 73.0731 121.275 74.0478 117.527C74.5137 115.735 75.5598 114.405 77.0771 113.84C77.4486 113.702 77.7374 113.79 78.1541 113.683C79.0622 113.447 80.2914 113.655 80.9814 113.997C82.5633 114.779 83.431 116.57 83.4048 119.253ZM88.1842 113.604C89.6551 113.551 91.7958 114.177 91.8866 115.566C91.3966 115.834 91.0506 116.302 90.4057 116.35C90.1351 115.632 88.9126 113.574 87.7803 114.546C87.3993 114.682 87.3414 114.963 87.1072 115.252C87.1119 115.661 87.0641 116.125 87.1745 116.429C87.7292 117.952 90.5753 118.615 91.55 120.273C91.857 120.796 92.3605 121.721 92.1559 122.784C91.8489 124.375 91.3218 125.302 90.0691 125.765C88.2091 126.452 85.4034 125.17 85.155 123.568C85.4613 123.48 85.6148 123.285 85.8955 123.176C86.1923 124.205 87.3542 124.875 88.3189 125.137C89.5366 125.468 90.9832 124.632 90.6749 123.176C90.1075 120.494 87.0991 120.573 85.9628 118.547C85.4068 117.556 85.4633 115.689 86.0301 114.781C86.3115 114.331 87.017 113.946 87.5111 113.761C87.7447 113.673 88.0072 113.738 88.1842 113.604ZM98.6182 113.604C101.802 113.55 103.303 114.995 104.138 117.684C104.397 118.517 104.645 119.91 104.407 121.058C104.29 121.624 104.16 122.283 103.936 122.784C103.155 124.53 101.851 125.431 99.9646 125.922C99.0255 126.166 97.9269 125.783 97.3392 125.53C95.3521 124.672 94.1067 122.966 94.1081 119.802C94.1087 118.826 94.1848 118.01 94.4446 117.292C94.9098 116.006 95.8394 114.706 96.9353 114.153C97.4227 113.908 98.1591 113.942 98.6182 113.604ZM115.784 125.608H113.764V119.018C113.764 116.911 113.803 115.118 112.351 114.703C111.305 114.405 110.42 115.204 109.86 115.566C109.642 115.706 109.095 115.872 108.985 116.115V125.608H106.965V113.918H108.985V115.33H109.052C109.32 114.931 109.791 114.79 110.197 114.546C111.719 113.632 114.34 112.887 115.38 114.938C115.839 115.843 115.784 117.282 115.784 118.704V125.608ZM126.689 125.608H124.602V124.431H124.535C122.979 126.389 119.107 126.767 118.477 123.49C117.79 119.922 122.093 118.833 124.602 118.782C124.616 117.427 124.627 115.873 124.4 114.86C124.244 114.729 124.086 114.598 123.929 114.467C122.647 114.362 121.772 114.606 121.304 115.644C121.104 116.087 121.084 117.314 120.698 117.527C120.374 117.769 119.55 117.469 119.082 117.449C118.713 116.693 119.125 115.694 119.554 115.173C120.426 114.113 122.339 113.186 124.266 113.683C124.792 113.818 125.205 113.675 125.612 113.918C126.635 114.53 126.689 116.18 126.689 117.998V125.608ZM138.873 125.608H136.854V119.018C136.854 116.911 136.893 115.118 135.44 114.703C134.395 114.405 133.51 115.204 132.95 115.566C132.731 115.706 132.184 115.872 132.074 116.115V125.608H130.055V113.918H132.074V115.33H132.142C132.409 114.931 132.88 114.79 133.286 114.546C134.809 113.632 137.429 112.887 138.469 114.938C138.929 115.843 138.873 117.282 138.873 118.704V125.608ZM145.807 113.604C147.591 113.571 148.814 113.893 149.779 114.781C150.105 115.082 150.256 115.652 150.586 115.958V116.036C150.289 116.131 149.229 117.086 149.173 116.978C148.617 116.262 148.417 115.304 147.692 114.781C147.443 114.601 147.048 114.47 146.749 114.389C145.118 113.949 144.104 115.65 143.72 116.743C143.501 117.367 143.511 118.157 143.384 118.861C143.293 119.361 143.441 119.979 143.518 120.352C143.896 122.186 144.33 123.693 145.672 124.353C147.324 125.164 149.404 123.942 150.048 122.784L150.115 122.862L150.519 123.333C150.325 123.779 150.041 123.986 149.711 124.274C149.002 124.895 148.343 125.506 147.355 125.843C145.438 126.498 143.127 124.907 142.441 123.804C141.092 121.634 140.954 116.674 142.845 115.017C143.361 114.564 143.999 114.092 144.663 113.84C145.01 113.708 145.513 113.814 145.807 113.604ZM161.626 119.253H154.221C154.172 121.664 154.711 123.487 156.039 124.274C157.722 125.271 160.075 124.002 160.751 122.784L160.818 122.862L161.222 123.333C160.468 125.069 157.589 126.593 155.298 125.608C153.14 124.679 151.295 121.275 152.269 117.527C152.735 115.735 153.781 114.405 155.298 113.84C155.67 113.702 155.959 113.79 156.376 113.683C157.284 113.447 158.513 113.655 159.203 113.997C160.785 114.779 161.652 116.57 161.626 119.253ZM76.0673 118.312H81.318C81.2904 116.761 80.8219 115.309 79.9717 114.703C77.8027 113.157 76.0794 116.082 76.0673 118.312ZM98.8875 114.389C98.6364 114.59 98.2716 114.593 98.0124 114.781C97.1487 115.409 96.6863 116.703 96.3968 117.998C95.8098 120.625 96.6567 123.57 97.9451 124.588C98.3032 124.871 98.8693 125.361 99.628 125.137C103.137 124.105 103.298 114.314 98.8875 114.389ZM154.289 118.312H159.539C159.512 116.761 159.043 115.309 158.193 114.703C156.024 113.157 154.301 116.082 154.289 118.312ZM123.929 119.567C123.493 119.884 122.795 119.799 122.314 120.038C121.236 120.571 120.176 121.828 120.631 123.647C120.745 124.103 120.81 124.59 121.102 124.824C122.232 125.73 124.263 124.189 124.602 123.254V119.724L124.468 119.567H123.929Z" fill="white"/>
</svg>
