<svg width="99" height="56" viewBox="0 0 99 56" fill="none" xmlns="http://www.w3.org/2000/svg">
<path fill-rule="evenodd" clip-rule="evenodd" d="M0 0.986145H99V53.4297H79.504V52.7468H98.4154V1.669H0.584588V52.7468H19.4668C19.4615 53.007 19.4682 53.2491 19.5252 53.4297H0V0.986145ZM32.6492 12.0143C35.5985 11.941 37.6074 12.785 39.2843 14.1653C39.6105 14.434 40.2799 14.8906 40.4535 15.292C40.5026 15.4053 40.554 15.6975 40.512 15.8725C40.4462 16.1462 40.2474 16.2996 40.0735 16.4529C39.9177 16.6464 39.7618 16.8398 39.6058 17.0333C39.4118 17.26 39.1817 17.451 38.992 17.682C38.2628 17.6973 38.297 17.3512 37.969 16.8285C37.7933 16.5482 37.532 16.3171 37.3552 16.0432C37.2274 15.8454 37.0839 15.6104 36.9167 15.4627C36.1644 14.7983 35.4731 14.1369 34.4615 13.7556C32.4502 12.9976 30.0645 14.0479 29.3171 15.4627C28.4382 17.1265 28.9169 19.8211 29.7263 21.0963C30.5064 22.3255 31.8782 22.9576 33.0877 23.6912C35.4807 25.1424 38.1061 26.2483 39.6058 28.7443C40.1106 29.5843 40.4798 30.5648 40.775 31.6465C41.2608 33.4264 41.0393 36.0823 40.512 37.5532C39.7175 39.7698 38.4487 41.0843 36.5368 41.9918C35.9437 42.2735 35.3267 42.3117 34.6368 42.504C34.0981 42.6538 32.7176 42.8317 32.0939 42.6747H31.597C31.2939 42.5975 30.9525 42.6269 30.6324 42.5381C30.2817 42.4469 29.9309 42.3559 29.5802 42.2649C29.6263 41.8061 29.3978 41.6033 29.2294 41.309C28.9447 40.8111 28.6743 40.313 28.411 39.8067H28.4694C28.6171 39.9412 28.8331 39.9627 29.0248 40.0457C29.6024 40.2952 30.2036 40.4226 30.8663 40.6261C31.2775 40.7524 31.7908 40.7852 32.24 40.8992C32.7451 41.0276 33.6544 40.9511 34.0815 40.8309C34.4302 40.7326 34.7149 40.7357 35.0168 40.5919C36.2506 40.0047 37.2099 39.1115 37.7352 37.6898C38.0257 36.9038 38.2832 35.5326 38.0567 34.3779C37.9643 33.9071 37.9123 33.4018 37.7644 32.9781C36.5946 29.6263 33.3212 28.7536 30.8078 26.9689C30.4529 26.7169 30.0519 26.606 29.6971 26.3543C29.0623 25.9019 28.4477 25.4119 27.8556 24.8862C27.4385 24.5185 27.1763 23.9412 26.8034 23.5205C26.8703 23.2269 27.0366 22.9488 27.1249 22.6669C27.3099 22.0757 27.3827 21.4295 27.5049 20.789C27.5741 20.4261 27.5686 19.8353 27.5049 19.4916C27.4952 19.2412 27.4855 18.9909 27.4756 18.7405C27.3219 17.962 27.2249 17.2175 26.9787 16.5553C26.8513 16.2124 26.6017 15.8977 26.5111 15.531C26.5915 15.4574 26.5976 15.3575 26.6572 15.2579C26.8069 15.0077 27.1281 14.5159 27.3295 14.336C28.0506 13.6919 28.7506 13.1016 29.6678 12.663C30.2706 12.3749 30.9659 12.3011 31.6554 12.1167C31.8983 12.0519 32.4742 12.1435 32.6492 12.0143ZM81.4331 12.0485C84.9217 11.9784 87.8101 12.485 90.1727 13.6873C90.7605 13.9865 91.2449 14.2763 91.7219 14.6775C91.8648 14.7975 92.0677 14.8782 92.1311 15.0872C92.2311 15.2351 92.2144 15.7503 92.1311 15.9066C91.9256 16.293 91.602 16.6336 91.3711 16.9992C91.2644 17.1681 91.1852 17.4165 91.0204 17.5113L90.6696 17.5455C90.612 17.4939 90.5296 17.4934 90.465 17.443C90.3677 17.3292 90.2702 17.2154 90.1727 17.1016C89.8404 16.8084 89.5159 16.4909 89.1789 16.2139C88.0878 15.3169 86.826 14.6828 85.3791 14.1995C84.7393 13.9857 84.0401 14.0069 83.3623 13.8239L82.3392 13.7897C82.1452 13.7405 81.7734 13.738 81.5793 13.7897C81.2288 13.8833 80.9137 13.7651 80.5855 13.858C80.0623 14.0063 79.504 14.1192 79.0363 14.3019C78.6522 14.4521 78.3322 14.5331 77.9841 14.7116C75.9456 15.7568 74.2021 18.1441 73.3074 20.55C73.0329 21.2884 72.9075 22.0467 72.6935 22.8718C72.294 24.4135 71.9558 27.5214 72.3428 29.3931C72.3916 29.7915 72.4403 30.1898 72.4889 30.5881C72.6906 31.4157 72.8525 32.2587 73.132 33.0122C74.3304 36.2432 76.161 38.416 79.0655 39.6701C79.6984 39.9432 80.4244 40.0467 81.1701 40.2505C81.4916 40.2618 81.8131 40.2732 82.1346 40.2847C82.3799 40.3465 82.8893 40.3222 83.1577 40.2505C83.3623 40.2393 83.5669 40.2279 83.7715 40.2164C84.5095 40.0139 85.2552 39.9692 85.9345 39.7042C87.3573 39.1491 88.6566 38.4799 89.822 37.6215C90.2347 37.3173 90.6497 36.9673 91.0496 36.6314C91.2355 36.475 91.4027 36.2141 91.6342 36.1192C91.7695 36.7154 92.3582 37.2149 92.4526 37.8264C92.1629 38.0186 91.9282 38.3204 91.6634 38.5434C91.111 39.0091 90.541 39.4857 89.9681 39.9091C88.6884 40.8549 87.3872 41.4551 85.7883 42.0601C85.1429 42.3042 84.4294 42.3192 83.7422 42.504C83.2968 42.6238 82.8434 42.4548 82.3685 42.5722C81.9595 42.6733 80.8342 42.5753 80.4393 42.4698C80.2151 42.4469 79.991 42.4242 79.767 42.4015C79.1041 42.2117 78.4304 42.1315 77.8087 41.8894C76.38 41.3335 75.0734 40.6237 73.9504 39.7042C73.5546 39.3802 73.2179 38.9459 72.8397 38.6117C72.1814 38.0302 71.6571 37.2483 71.1736 36.4607C71.0307 36.2278 70.6656 35.7638 70.589 35.5047V26.9006C70.5794 24.3288 70.5696 21.7567 70.5598 19.1843C70.5878 19.0853 70.691 18.9929 70.7352 18.9112C70.9757 18.4658 71.2031 18.0626 71.4659 17.6479C71.5732 17.5227 71.6803 17.3975 71.7874 17.2723C73.148 15.1664 75.4297 13.6871 77.8087 12.7655C78.5353 12.4839 79.3307 12.4007 80.1178 12.185C80.3899 12.1104 81.263 12.1731 81.4331 12.0485ZM39.0505 12.1509H40.8919C41.1267 12.6909 41.7162 13.2321 42.0319 13.7215C42.6267 14.6438 43.3083 15.4615 43.9026 16.3846C44.0879 16.6727 44.36 16.9161 44.5456 17.204C46.3114 19.9431 48.4229 22.3502 50.1869 25.0911C50.7195 25.9183 51.3733 26.6449 51.9114 27.4811C52.0514 27.6986 52.2683 27.8785 52.4083 28.0956C52.9035 28.8638 53.4629 29.5464 53.9575 30.3149C54.1428 30.6031 54.4149 30.8462 54.6005 31.1344C55.3403 32.2826 56.1994 33.2973 56.9389 34.4462C57.2797 34.9758 57.8108 35.4179 58.0788 36.0168H58.1081V12.1509H59.8618C59.8814 22.1765 59.9009 32.2031 59.9203 42.2308H58.2834C58.0262 41.7658 57.6296 41.4042 57.3481 40.9675C56.7074 39.974 55.9708 39.0934 55.3313 38.0995C55.146 37.8113 54.8738 37.5679 54.6882 37.2801C54.2927 36.6665 53.8558 36.1185 53.4606 35.5047C53.3206 35.2872 53.1037 35.1072 52.9637 34.8901C51.2061 32.1634 49.1074 29.7656 47.3516 27.0372C47.2116 26.8197 46.9947 26.6398 46.8547 26.4226C46.314 25.5835 45.6999 24.838 45.1594 23.9985C44.9735 23.7098 44.7023 23.4683 44.5164 23.1791C43.7783 22.0295 42.9172 21.0158 42.178 19.8672C41.8904 19.4204 41.5359 19.0254 41.2427 18.5698C41.1348 18.402 40.9814 18.2914 40.8919 18.0918H40.8627V30.8271H40.8335C40.8016 30.5044 40.6359 30.2569 40.5412 30.0076C40.2778 29.3145 39.9692 28.7365 39.6058 28.1639C39.4874 27.9851 39.3605 27.8141 39.2259 27.6518C39.1674 27.5948 39.1089 27.5381 39.0505 27.4811V17.9893C39.1113 17.9766 39.1066 17.9811 39.1382 17.9552C39.5436 17.7917 39.8832 17.0579 40.2197 16.7602C40.3866 16.6125 40.6181 16.4327 40.7166 16.2139C40.782 16.0684 40.8557 15.7403 40.8042 15.4969C40.6511 14.7729 40.0878 14.4077 39.6351 14.0287C39.4524 13.8759 39.2846 13.6383 39.0505 13.5507V12.1509ZM49.4562 12.2533H51.2684C51.6142 12.8788 52.1453 13.371 52.5252 13.9605C53.6561 15.7139 54.991 17.2591 56.1205 19.0136C56.5075 19.615 56.9848 20.1449 57.3773 20.7549C57.4893 20.9287 57.7404 21.1023 57.8158 21.3012V27.2421H57.7865C57.4498 26.6268 56.9313 26.1465 56.5589 25.5691C55.7729 24.3499 54.8595 23.2722 54.0744 22.0523C53.8891 21.7642 53.617 21.5209 53.4314 21.2329C52.9926 20.552 52.4606 19.9601 52.0283 19.2868C51.8296 18.9771 51.5352 18.436 51.2684 18.2283V26.0129H51.2392V25.9446C51.0442 25.7916 50.9124 25.5155 50.7715 25.2959C50.53 24.9195 50.229 24.5876 49.9823 24.2033C49.8434 23.9873 49.5438 23.7733 49.4562 23.5205V12.2533ZM68.5137 12.2533H70.2675C70.2771 22.279 70.2869 32.3056 70.2967 42.3332H68.6599C68.5026 41.9706 68.1896 41.7245 67.9876 41.4114C67.5486 40.7306 67.0181 40.1372 66.5846 39.4652C65.1632 37.261 63.4705 35.323 62.054 33.1146C61.622 32.4413 61.0895 31.8497 60.651 31.1685C60.5326 30.9845 60.2631 30.7963 60.1833 30.5881V24.6131H60.2126V24.6813C60.4613 24.8797 60.6452 25.2534 60.8264 25.5349C61.3128 26.2908 61.9126 26.9556 62.4048 27.7201C62.5901 28.0082 62.8622 28.2517 63.0478 28.5395C63.9332 29.9134 64.9691 31.1255 65.8539 32.5001C66.1388 32.9432 66.5329 33.3202 66.8184 33.7634C67.1578 34.2902 67.5664 34.747 67.8999 35.2657C68.0773 35.5412 68.2682 35.928 68.5137 36.1192V12.2533ZM11.3995 12.3216H17.8299C18.7156 12.3216 19.7906 12.1888 20.5775 12.3899L21.3375 12.4582C21.7955 12.572 22.2534 12.6858 22.7112 12.7996C23.9921 13.2858 25.2039 14.0474 25.9265 15.1896C26.3704 15.883 26.7158 16.6555 26.9495 17.4772C27.2918 18.704 27.3561 20.6465 27.008 21.9158C26.3804 24.2033 25.028 26.2004 23.2374 27.1055C22.6741 27.3902 22.0252 27.6129 21.2498 27.6176V27.6859C21.5283 27.9529 21.6967 28.4842 21.8928 28.8468C22.3912 29.7683 22.9197 30.6898 23.442 31.6124C24.7746 33.9648 26.0779 36.349 27.4172 38.7141C27.877 39.5257 28.3391 40.3359 28.791 41.1724C28.9547 41.4752 29.2274 41.7518 29.3171 42.1284H25.1665C24.7287 41.2147 24.1812 40.3444 23.705 39.4652C22.4394 37.1288 21.1922 34.788 19.9345 32.4659C19.4504 31.5724 18.9775 30.6826 18.5022 29.8028C18.1615 29.1722 17.8734 28.5549 17.333 28.1639C16.7556 27.746 15.553 27.8867 14.6439 27.8908V42.1284H11.3995V12.3216ZM14.6439 13.8239V26.6958C16.6379 26.7152 19.0459 26.9126 20.4606 26.2178C22.5438 25.1947 24.5445 21.8467 23.5297 18.2283C23.3157 17.4656 23.0231 16.7649 22.6528 16.1798C21.9674 15.0964 20.7692 14.2626 19.4668 13.8922C18.9792 13.7535 18.3404 13.8239 17.7715 13.8239H14.6439ZM51.2684 42.0942H49.4562V30.5539H49.4854C49.8584 31.2422 50.4093 31.8104 50.8299 32.4659C50.9416 32.6401 51.1936 32.8149 51.2684 33.0122V42.0942ZM40.8627 41.9918H39.0505V40.6261C39.5465 40.2324 40.0759 39.359 40.395 38.7482C40.5508 38.3498 40.7067 37.9514 40.8627 37.5532V41.9918ZM31.6847 50.4251V51.2445C31.2793 51.2401 30.7531 51.1814 30.5155 51.3811C29.9382 51.8659 30.1259 54.4236 30.1355 55.649H29.2586V50.5617H30.1355V51.5518H30.1647V51.4835C30.2367 51.3753 30.2463 51.2292 30.3109 51.108C30.5877 50.589 30.9344 50.4145 31.6847 50.4251ZM36.2152 52.8834H33C32.9787 53.9326 33.2125 54.7261 33.7892 55.0686C34.5199 55.5022 35.5415 54.9501 35.8353 54.4198L35.8645 54.454L36.0399 54.6588C35.7125 55.4144 34.4621 56.0778 33.4677 55.649C32.5303 55.2447 31.7291 53.7633 32.1523 52.1323C32.3546 51.3524 32.8088 50.7734 33.4677 50.5275C33.629 50.4675 33.7544 50.506 33.9353 50.4593C34.3296 50.3568 34.8634 50.4473 35.163 50.5958C35.8499 50.9362 36.2266 51.7157 36.2152 52.8834ZM38.2905 50.4251C38.9292 50.4019 39.8587 50.6744 39.8981 51.2787C39.6853 51.3955 39.5351 51.5993 39.2551 51.6201C39.1376 51.3077 38.6068 50.4121 38.1151 50.8348C37.9497 50.8942 37.9246 51.0165 37.8229 51.1421C37.8249 51.3203 37.8041 51.5221 37.8521 51.6543C38.0929 52.3173 39.3288 52.6058 39.752 53.3273C39.8853 53.5547 40.1039 53.9575 40.0151 54.4198C39.8818 55.1123 39.6529 55.5158 39.1089 55.7173C38.3013 56.0164 37.0831 55.4585 36.9752 54.7613C37.1082 54.7227 37.1748 54.638 37.2967 54.5905C37.4256 55.0385 37.9301 55.3301 38.349 55.4441C38.8777 55.5879 39.5059 55.2242 39.372 54.5905C39.1256 53.4232 37.8193 53.4577 37.326 52.5761C37.0845 52.1449 37.1091 51.3323 37.3552 50.9373C37.4774 50.7413 37.7837 50.574 37.9982 50.4934C38.0997 50.4552 38.2136 50.4832 38.2905 50.4251ZM42.8211 50.4251C44.2033 50.4016 44.8552 51.0305 45.2179 52.2005C45.3304 52.5631 45.438 53.1692 45.3348 53.6687C45.2839 53.9152 45.2272 54.202 45.1302 54.4198C44.7911 55.1799 44.2247 55.5718 43.4057 55.7856C42.9979 55.8917 42.5209 55.7251 42.2657 55.6148C41.4029 55.2417 40.8621 54.499 40.8627 53.1224C40.863 52.6973 40.896 52.3426 41.0089 52.0298C41.2108 51.4702 41.6145 50.9045 42.0903 50.6641C42.302 50.5572 42.6217 50.5723 42.8211 50.4251ZM50.2746 55.649H49.3977V52.781C49.3977 51.8642 49.4146 51.0837 48.7839 50.9031C48.3299 50.7734 47.9456 51.1213 47.7024 51.2787C47.6077 51.3398 47.3701 51.4118 47.3224 51.5177V55.649H46.4455V50.5617H47.3224V51.1763H47.3516C47.4677 51.0025 47.6723 50.941 47.8485 50.8348C48.5097 50.4371 49.6476 50.113 50.0992 51.0055C50.2985 51.3996 50.2746 52.0254 50.2746 52.6444V55.649ZM55.0097 55.649H54.1036V55.1368H54.0744C53.3986 55.9887 51.7173 56.1533 51.4438 54.7271C51.1456 53.1743 53.014 52.7004 54.1036 52.6785C54.1095 52.0889 54.1142 51.4125 54.0159 50.9714C53.9478 50.9144 53.8794 50.8577 53.8113 50.8007C53.2548 50.7549 52.8748 50.8611 52.6714 51.3128C52.5846 51.5057 52.5761 52.0394 52.4083 52.1323C52.2677 52.2374 51.91 52.107 51.7068 52.0981C51.5464 51.7693 51.7252 51.3343 51.9114 51.108C52.2902 50.6467 53.1209 50.2431 53.9575 50.4593C54.1861 50.5183 54.3655 50.4558 54.5421 50.5617C54.9864 50.828 55.0097 51.546 55.0097 52.3371V55.649ZM60.3003 55.649H59.4234V52.781C59.4234 51.8642 59.4403 51.0837 58.8096 50.9031C58.3556 50.7734 57.9713 51.1213 57.7281 51.2787C57.6334 51.3398 57.3957 51.4118 57.3481 51.5177V55.649H56.4712V50.5617H57.3481V51.1763H57.3773C57.4934 51.0025 57.698 50.941 57.8742 50.8348C58.5354 50.4371 59.6733 50.113 60.1249 51.0055C60.3242 51.3996 60.3003 52.0254 60.3003 52.6444V55.649ZM63.3109 50.4251C64.0858 50.4104 64.6166 50.5508 65.0354 50.9373C65.1772 51.068 65.2427 51.3162 65.3862 51.4494V51.4835C65.257 51.5245 64.7969 51.9404 64.7724 51.8933C64.5309 51.5819 64.4444 51.165 64.1293 50.9373C64.0212 50.8591 63.8496 50.8017 63.7201 50.7665C63.0116 50.575 62.5717 51.3152 62.4048 51.7908C62.3095 52.0626 62.3142 52.4064 62.2586 52.7127C62.2192 52.9302 62.2838 53.1992 62.3171 53.3614C62.4814 54.1597 62.6696 54.8156 63.2524 55.1027C63.9694 55.4557 64.8729 54.9238 65.1524 54.4198L65.1816 54.454L65.357 54.6588C65.2725 54.8531 65.1494 54.9429 65.0062 55.0686C64.6981 55.3386 64.4123 55.6046 63.9832 55.7514C63.1507 56.0362 62.1473 55.3437 61.8494 54.8637C61.2637 53.9196 61.2037 51.7608 62.0248 51.0397C62.249 50.8427 62.5258 50.6371 62.814 50.5275C62.9648 50.4702 63.1832 50.5163 63.3109 50.4251ZM70.1798 52.8834H66.9646C66.9432 53.9326 67.1771 54.7261 67.7538 55.0686C68.4845 55.5022 69.5061 54.9501 69.7998 54.4198L69.829 54.454L70.0044 54.6588C69.6771 55.4144 68.4266 56.0778 67.4322 55.649C66.4949 55.2447 65.6937 53.7633 66.1169 52.1323C66.3192 51.3524 66.7734 50.7734 67.4322 50.5275C67.5936 50.4675 67.719 50.506 67.8999 50.4593C68.2942 50.3568 68.8279 50.4473 69.1275 50.5958C69.8144 50.9362 70.1912 51.7157 70.1798 52.8834ZM33.0292 52.4737H35.3091C35.2971 51.7987 35.0937 51.167 34.7245 50.9031C33.7828 50.2305 33.0345 51.5033 33.0292 52.4737ZM42.938 50.7665C42.829 50.8539 42.6705 50.8553 42.558 50.9373C42.183 51.2104 41.9822 51.7734 41.8565 52.3371C41.6016 53.4806 41.9693 54.7619 42.5288 55.2051C42.6843 55.328 42.9301 55.5414 43.2595 55.4441C44.7832 54.9948 44.8531 50.7341 42.938 50.7665ZM66.9938 52.4737H69.2737C69.2617 51.7987 69.0583 51.167 68.6891 50.9031C67.7473 50.2305 66.9991 51.5033 66.9938 52.4737ZM53.8113 53.02C53.6219 53.1579 53.3188 53.121 53.1098 53.2248C52.6422 53.457 52.1815 54.004 52.3791 54.7954C52.4288 54.9941 52.4571 55.2058 52.5837 55.3076C53.0745 55.7022 53.9563 55.0313 54.1036 54.6247V53.0883L54.0452 53.02H53.8113Z" fill="#333333"/>
</svg>
