<svg width="22" height="26" viewBox="0 0 22 26" fill="none" xmlns="http://www.w3.org/2000/svg">
<g filter="url(#filter0_d)">
<path d="M11.0014 0C7.62462 0 4.88672 2.7195 4.88672 6.07428C4.88672 7.79051 6.57024 10.8652 6.57024 10.8652L10.776 18L15.1642 10.9485C15.1642 10.9485 17.1135 8.01488 17.1135 6.07428C17.114 2.7195 14.3766 0 11.0014 0ZM10.9728 9.41986C9.0388 9.41986 7.47231 7.85337 7.47231 5.91737C7.47231 3.98393 9.03828 2.41847 10.9728 2.41847C12.9057 2.41847 14.4737 3.98393 14.4737 5.91737C14.4737 7.85337 12.9057 9.41986 10.9728 9.41986Z" fill="#FF5C00"/>
</g>
<defs>
<filter id="filter0_d" x="-2" y="0" width="26" height="26" filterUnits="userSpaceOnUse" color-interpolation-filters="sRGB">
<feFlood flood-opacity="0" result="BackgroundImageFix"/>
<feColorMatrix in="SourceAlpha" type="matrix" values="0 0 0 0 0 0 0 0 0 0 0 0 0 0 0 0 0 0 127 0"/>
<feOffset dy="4"/>
<feGaussianBlur stdDeviation="2"/>
<feColorMatrix type="matrix" values="0 0 0 0 0 0 0 0 0 0 0 0 0 0 0 0 0 0 0.25 0"/>
<feBlend mode="normal" in2="BackgroundImageFix" result="effect1_dropShadow"/>
<feBlend mode="normal" in="SourceGraphic" in2="effect1_dropShadow" result="shape"/>
</filter>
</defs>
</svg>
